<svg width="47" height="60" viewBox="0 0 47 60" fill="none" xmlns="http://www.w3.org/2000/svg">
<circle cx="1.62749" cy="20.5063" r="1.62749" fill="#1F2A3E"/>
<path d="M17.6221 15.8574L16.6521 16.2526L18.0533 20.6357L14.7121 21.6416V23.0427L11.7661 25.0187L8.13745 26.3121V28.2881L21.143 37.5213L23.1189 38.5272L23.8016 40.1799L26.8553 39.4972L29.478 37.5213L35.2622 33.749L35.0107 33.0304L33.5737 32.4197L31.921 29.9766L32.6755 27.3899L32.2803 24.408L31.3821 20.959L29.9091 19.3064L29.478 17.8693L30.448 16.7196V15.1748L30.8073 13.1269H29.2265L28.1128 12.9114L26.8553 13.6299L25.6698 13.1269L23.1189 13.6299L21.143 13.8455L19.634 14.8874H18.9874L18.3407 15.1748L17.6221 15.8574Z" stroke="#FFAA8B" stroke-width="2.67"/>
<circle cx="44.6475" cy="20.5606" r="1.57324" fill="#1F2A3E"/>
<ellipse cx="2.60405" cy="31.736" rx="1.62749" ry="1.57324" fill="#1F2A3E"/>
<path fill-rule="evenodd" clip-rule="evenodd" d="M0.03479 20.7233C1.69929 9.01394 11.4131 0 23.1103 0C34.8074 0 44.5213 9.01394 46.1858 20.7233H43.0209C41.3868 10.8167 33.0803 3.25498 23.1103 3.25498C13.1401 3.25498 4.83377 10.8167 3.19953 20.7233H0.03479ZM0.906474 31.7902C1.75068 34.5056 3.06231 37.0553 4.81307 39.3546C9.07394 44.9504 21.4647 58.2369 21.99 58.7997L23.1101 60L24.2304 58.7999C24.756 58.2368 37.1506 44.9474 41.412 39.3498C43.161 37.0525 44.4714 34.5045 45.3148 31.7902H42.0004C41.2765 33.7646 40.259 35.6256 38.9635 37.3273C35.5329 41.8333 26.3199 51.8572 23.1103 55.3242C19.901 51.8573 10.6913 41.8364 7.26147 37.332C5.96434 35.6284 4.94571 33.7658 4.22095 31.7902H0.906474Z" fill="#1F2A3E"/>
<circle cx="43.6166" cy="31.7902" r="1.62749" fill="#1F2A3E"/>
</svg>
