<svg width="426" height="553" viewBox="0 0 426 553" fill="none" xmlns="http://www.w3.org/2000/svg">
<circle cx="15" cy="189" r="15" fill="#1F2A3E"/>
<path d="M162.417 146.152L153.477 149.795L166.391 190.192L135.596 199.464V212.377L108.444 230.589L75 242.51V260.722L194.868 345.821L213.079 355.093L219.371 370.325L247.517 364.033L271.689 345.821L325 311.053L322.682 304.43L309.437 298.801L294.205 276.285L301.159 252.444L297.517 224.96L289.238 193.172L275.662 177.94L271.689 164.695L280.629 154.099V139.861L283.94 120.987H269.371L259.106 119L247.517 125.623L236.589 120.987L213.079 125.623L194.868 127.609L180.96 137.212H175L169.04 139.861L162.417 146.152Z" stroke="#FFAA8B" stroke-width="20.6678"/>
<circle cx="411.5" cy="189.5" r="14.5" fill="#1F2A3E"/>
<ellipse cx="24" cy="292.5" rx="15" ry="14.5" fill="#1F2A3E"/>
<path fill-rule="evenodd" clip-rule="evenodd" d="M0.320312 191C15.6614 83.0785 105.191 0 213 0C320.808 0 410.338 83.0785 425.679 191H396.509C381.448 99.6937 304.89 30.0001 213 30.0001C121.108 30.0001 44.5508 99.6937 29.4887 191H0.320312ZM8.35437 293C16.1351 318.027 28.224 341.527 44.3601 362.719C83.6311 414.293 197.833 536.75 202.674 541.937L212.998 553L223.323 541.939C228.168 536.749 342.404 414.265 381.681 362.674C397.8 341.501 409.878 318.016 417.651 293H387.104C380.431 311.197 371.054 328.349 359.113 344.033C327.495 385.564 242.582 477.95 213 509.905C183.42 477.952 98.5374 385.592 66.9262 344.077C54.971 328.375 45.5826 311.208 38.9028 293H8.35437Z" fill="#1F2A3E"/>
<circle cx="402" cy="293" r="15" fill="#1F2A3E"/>
</svg>
